# xmcd CD database file
#
# Track frame offsets:
#	150
#	10815
#	22322
#	31392
#	40050
#	48585
#	56675
#	67607
#	76512
#	86785
#	95107
#	105675
#	115457
#	133227
#	144275
#	157010
#	169595
#	178710
#	188780
#	202432
#	213385
#	222727
#	231160
#	244687
#	253727
#	263795
#	281287
#	294035
#
# Disc length: 4570 seconds
#
# Revision: 0
# Processed by: cddbd v1.5.2PL0 Copyright (c) Steve Scherf et al.
# Submitted via: CDex 1.40Beta9
#
DISCID=9f11d81c
DTITLE=Johnny Cash  - The Man In Black 1959 - 1962 [CD1]
DYEAR=1991
DGENRE=Country
TTITLE0=Snow In His Hair
TTITLE1=I Saw A Man
TTITLE2=Lead Me Gently Home
TTITLE3=Are All The Children In
TTITLE4=Swing Low, Sweet Chariot
TTITLE5=I Call Him
TTITLE6=The Old Account
TTITLE7=He'll Be A Friend
TTITLE8=These Things Shall Pass
TTITLE9=It Could Be You (Instead Of Him)
TTITLE10=God Will
TTITLE11=The Great Speckled Bird
TTITLE12=Were You There (When They Crucified My Lord)
TTITLE13=He'll Understand And Say Well Done
TTITLE14=God Has My Fortune Laid Away
TTITLE15=When I've Learned
TTITLE16=I Got Shoes
TTITLE17=Let The Lower Lights Be Burning
TTITLE18=If We Never Meet Again
TTITLE19=When I Take My Vacation In Heaven
TTITLE20=When He Reached Down His Hand For Me
TTITLE21=Taller Than Trees
TTITLE22=I Won't Have To Cross Jordan Alone
TTITLE23=My God Is Real (Yes, God Is Real)
TTITLE24=These Hands
TTITLE25=Were You There (When They Crucified My Lord)
TTITLE26=(There'll Be) Peace In The Valley
TTITLE27=A Day In The Grand Canyon
EXTD=YEAR: 1991 ID3G: 2
EXTT0=
EXTT1=
EXTT2=
EXTT3=
EXTT4=
EXTT5=
EXTT6=
EXTT7=
EXTT8=
EXTT9=
EXTT10=
EXTT11=
EXTT12=
EXTT13=
EXTT14=
EXTT15=
EXTT16=
EXTT17=
EXTT18=
EXTT19=
EXTT20=
EXTT21=
EXTT22=
EXTT23=
EXTT24=
EXTT25=
EXTT26=
EXTT27=
PLAYORDER=
